<?xml version="1.0" standalone="no"?>
<!DOCTYPE svg PUBLIC "-//W3C//DTD SVG 20010904//EN"
 "http://www.w3.org/TR/2001/REC-SVG-20010904/DTD/svg10.dtd">
<svg version="1.0" xmlns="http://www.w3.org/2000/svg"
 width="714.000000pt" height="571.000000pt" viewBox="0 0 714.000000 571.000000"
 preserveAspectRatio="xMidYMid meet">

<g transform="translate(0.000000,571.000000) scale(0.100000,-0.100000)"
fill="#000000" stroke="none">
<path d="M1552 5010 c-99 -317 -122 -437 -122 -623 1 -133 18 -238 54 -326 14
-36 26 -68 26 -73 0 -5 8 -21 19 -36 10 -15 36 -54 57 -86 59 -88 152 -188
251 -268 88 -71 318 -228 334 -228 13 0 11 -38 -7 -148 -12 -74 -15 -139 -11
-272 5 -151 9 -191 35 -290 38 -148 113 -322 185 -431 77 -117 77 -117 129
-81 55 39 139 126 172 179 l25 42 -41 68 c-153 251 -200 515 -142 800 55 270
217 510 460 680 50 36 204 109 274 131 134 43 226 55 375 49 109 -3 162 -11
240 -31 340 -92 616 -334 740 -651 18 -45 40 -111 50 -146 22 -83 31 -337 16
-439 -22 -146 -81 -296 -171 -437 -12 -19 -12 -26 6 -58 33 -62 183 -205 215
-205 12 0 113 157 157 245 53 107 107 268 129 385 23 126 23 384 0 490 -10 41
-17 84 -17 95 1 15 34 41 123 97 315 198 495 393 576 623 78 219 77 433 -2
735 -17 65 -97 321 -104 332 -2 4 -70 -60 -150 -142 -143 -147 -256 -245 -380
-328 -134 -90 -362 -196 -525 -243 l-77 -22 47 -30 c53 -33 215 -164 250 -201
l22 -24 83 33 c123 48 253 118 395 212 70 45 132 83 139 83 19 0 17 -170 -2
-243 -29 -111 -80 -195 -179 -292 -91 -90 -305 -245 -338 -245 -9 0 -32 25
-53 60 -173 285 -437 497 -767 616 -159 58 -409 90 -570 73 -182 -18 -264 -38
-421 -101 -198 -80 -326 -166 -487 -328 -80 -80 -135 -147 -180 -217 -36 -56
-72 -102 -81 -103 -28 0 -261 163 -334 235 -84 83 -153 194 -177 284 -19 74
-25 261 -8 261 6 0 75 -42 153 -94 155 -102 188 -120 351 -191 l108 -47 47 44
c50 49 128 111 215 173 31 21 52 42 48 46 -4 3 -36 14 -72 24 -85 23 -258 91
-290 114 -14 10 -36 21 -48 25 -37 12 -144 76 -244 145 -62 43 -154 126 -278
251 l-186 185 -42 -135z"/>
<path d="M2763 3343 c-26 -62 -54 -174 -60 -246 l-6 -67 51 -53 c54 -58 92
-125 124 -221 17 -49 21 -86 21 -191 1 -156 -14 -219 -81 -355 -37 -75 -62
-111 -122 -172 l-76 -77 48 -42 c88 -75 204 -151 305 -200 197 -94 371 -139
578 -146 313 -12 593 69 865 252 52 35 112 81 132 102 l37 38 -60 60 c-146
145 -218 324 -218 540 -1 160 47 295 143 408 41 49 56 74 56 97 0 68 -55 276
-81 304 -18 20 -217 -155 -285 -252 -59 -84 -116 -203 -146 -307 -20 -71 -23
-101 -22 -255 0 -158 3 -185 27 -273 15 -54 44 -134 64 -178 21 -47 32 -83 27
-88 -5 -5 -39 -20 -75 -35 -266 -104 -594 -99 -853 13 -56 25 -56 21 -1 153
149 360 89 779 -149 1037 -64 69 -204 191 -220 191 -4 0 -14 -17 -23 -37z"/>
<path d="M2855 1071 c-130 -32 -199 -138 -143 -221 29 -43 83 -74 166 -95 110
-27 132 -40 132 -74 0 -38 -23 -51 -87 -51 -54 0 -107 27 -118 59 -5 18 -15
21 -60 21 -30 0 -56 -4 -59 -9 -10 -15 23 -79 58 -114 127 -127 386 -61 386
98 0 83 -52 126 -212 170 -58 16 -99 33 -103 43 -10 28 6 51 45 63 50 15 104
4 129 -26 16 -21 27 -25 75 -25 31 0 56 2 56 5 0 20 -32 75 -60 102 -53 51
-130 72 -205 54z"/>
<path d="M3575 1071 c-117 -30 -168 -120 -116 -204 27 -43 26 -51 -3 -90 -59
-77 -54 -142 15 -201 70 -59 185 -72 273 -29 35 16 40 16 65 2 27 -16 29 -15
63 16 l35 33 -25 25 c-22 23 -24 29 -13 54 6 15 12 46 14 68 l2 40 -52 3 c-51
3 -53 2 -53 -22 0 -42 -28 -31 -113 42 -93 82 -111 105 -103 137 12 46 120 44
141 -3 8 -19 18 -22 62 -22 63 0 68 14 28 73 -42 61 -144 98 -220 78z m59
-368 c70 -59 71 -73 7 -73 -55 0 -101 28 -101 61 0 24 17 59 29 59 5 0 34 -21
65 -47z"/>
<path d="M4425 1071 c-142 -38 -229 -143 -229 -277 1 -103 63 -197 163 -246
65 -32 188 -32 248 0 51 27 113 79 113 96 0 6 -19 22 -43 35 l-43 23 -33 -31
c-76 -71 -220 -48 -268 42 -22 42 -22 132 0 175 48 90 199 108 274 33 l29 -29
42 25 c23 14 42 31 42 38 0 19 -67 74 -115 95 -51 22 -138 32 -180 21z"/>
<path d="M4998 1066 c-217 -60 -281 -322 -116 -471 146 -131 353 -81 438 106
85 189 -120 422 -322 365z m153 -129 c50 -33 83 -105 74 -163 -13 -86 -92
-150 -177 -142 -152 15 -205 218 -79 304 49 33 133 34 182 1z"/>
<path d="M6434 1071 c-126 -32 -196 -141 -142 -221 30 -44 84 -75 173 -96 101
-24 125 -38 125 -74 0 -36 -23 -50 -84 -50 -57 0 -88 14 -110 51 -16 26 -22
29 -71 29 -30 0 -57 -4 -60 -10 -10 -16 33 -86 75 -123 91 -77 245 -75 328 5
75 74 57 179 -38 228 -21 11 -74 29 -117 41 -100 27 -113 35 -113 63 0 33 23
48 80 54 45 4 52 2 80 -27 28 -27 38 -31 87 -31 l55 0 -7 28 c-23 91 -157 160
-261 133z"/>
<path d="M517 1063 c-5 -9 -9 -222 -7 -460 l0 -73 163 0 c178 0 217 10 267 64
21 23 25 38 25 86 0 53 -3 62 -32 92 -39 40 -40 47 -13 90 28 47 26 99 -6 138
-47 56 -74 63 -240 68 -91 3 -154 1 -157 -5z m284 -113 c13 -8 19 -21 19 -45
0 -51 -30 -67 -116 -63 l-69 3 -3 58 -3 57 76 0 c42 0 85 -5 96 -10z m24 -230
c24 -26 13 -64 -23 -79 -16 -7 -60 -11 -98 -9 l-69 3 -3 53 -3 52 89 0 c76 0
92 -3 107 -20z"/>
<path d="M1054 1056 c-3 -9 -4 -89 -2 -178 5 -185 12 -210 78 -282 100 -108
286 -97 377 23 52 68 64 126 61 297 l-3 149 -57 3 -58 3 0 -140 c0 -179 -11
-231 -56 -271 -29 -25 -43 -30 -87 -30 -60 0 -89 16 -114 63 -14 25 -19 67
-23 202 l-5 170 -53 3 c-40 2 -54 -1 -58 -12z"/>
<path d="M1687 1064 c-4 -4 -7 -126 -7 -271 l0 -263 203 2 202 3 0 50 0 50
-142 3 -143 3 -2 212 -3 212 -50 3 c-28 2 -54 0 -58 -4z"/>
<path d="M2195 1048 c-3 -13 -4 -133 -3 -268 l3 -245 203 -3 202 -2 0 55 0 55
-140 0 -140 0 -2 213 -3 212 -57 3 c-53 3 -58 1 -63 -20z"/>
<path d="M5345 1048 c4 -13 44 -133 89 -268 l83 -245 63 0 64 0 53 145 c72
198 71 196 88 179 7 -8 36 -84 63 -169 l50 -155 63 0 63 0 59 155 c31 85 75
201 97 257 22 56 40 107 40 113 0 6 -24 10 -55 10 -67 0 -65 4 -135 -192 -29
-82 -58 -148 -64 -148 -6 0 -36 75 -66 168 l-55 167 -62 3 c-51 2 -63 0 -71
-15 -6 -10 -33 -87 -62 -170 -32 -94 -58 -153 -66 -153 -8 0 -33 62 -66 168
l-54 167 -62 3 c-61 3 -62 2 -57 -20z"/>
</g>
</svg>
